<svg width="187" height="187" viewBox="0 0 187 187" fill="none" xmlns="http://www.w3.org/2000/svg">
<path d="M91.9416 84.9292C74.2545 80.3321 68.5666 75.5792 68.5666 68.1771C68.5666 59.6842 76.4362 53.7625 89.6041 53.7625C103.473 53.7625 108.616 60.3854 109.083 70.125H126.303C125.757 56.7233 117.576 44.4125 101.292 40.4388V23.375H77.9166V40.205C62.8008 43.4775 50.6458 53.295 50.6458 68.3329C50.6458 86.3317 65.5279 95.2921 87.2666 100.512C106.746 105.187 110.642 112.044 110.642 119.29C110.642 124.667 106.824 133.238 89.6041 133.238C73.5533 133.238 67.242 126.069 66.385 116.875H49.2433C50.1783 133.939 62.9566 143.522 77.9166 146.717V163.625H101.292V146.873C116.485 143.99 128.562 135.185 128.562 119.212C128.562 97.0842 109.629 89.5262 91.9416 84.9292Z" fill="white"/>
</svg>
