<svg width="286" height="286" viewBox="0 0 286 286" fill="none" xmlns="http://www.w3.org/2000/svg">
<path d="M268.531 147.955C268.531 220.894 211.695 280 138.511 280C65.3272 280 6 220.871 6 147.932C6 74.9933 60.3456 17.377 133.529 17.377" stroke="white" stroke-width="12"/>
<path d="M136.46 138.948C118.838 134.383 113.171 129.664 113.171 122.313C113.171 113.88 121.012 108 134.131 108C147.949 108 153.073 114.576 153.539 124.248H170.695C170.152 110.94 162 98.7154 145.776 94.7696V77.8254H122.487V94.5374C107.426 97.787 95.3162 107.536 95.3162 122.468C95.3162 140.341 110.144 149.238 131.802 154.422C151.21 159.064 155.091 165.873 155.091 173.068C155.091 178.407 151.288 186.918 134.131 186.918C118.139 186.918 111.851 179.8 110.997 170.67H93.9188C94.8504 187.614 107.582 197.131 122.487 200.303V217.092H145.776V200.457C160.914 197.595 172.946 188.852 172.946 172.991C172.946 151.018 154.082 143.513 136.46 138.948Z" fill="white"/>
<path d="M258.499 82.0398L258.532 72.4111L220.265 72.246L262.1 30.8352L255.272 23.9829L213.437 65.3938L213.601 27.2548L203.872 27.2215L203.685 81.8522L258.499 82.0398Z" fill="white"/>
</svg>
