<svg width="286" height="286" viewBox="0 0 286 286" fill="none" xmlns="http://www.w3.org/2000/svg">
<path d="M268.531 147.955C268.531 220.894 211.695 280 138.511 280C65.3273 280 6.00012 220.871 6.00012 147.933C6.00012 74.9937 60.3457 17.3773 133.529 17.3773" stroke="white" stroke-width="12"/>
<path d="M136.46 138.948C118.838 134.384 113.171 129.664 113.171 122.314C113.171 113.88 121.012 108 134.131 108C147.95 108 153.073 114.577 153.539 124.248H170.695C170.152 110.94 162.001 98.7158 145.776 94.7699V77.8258H122.487V94.5378C107.427 97.7874 95.3163 107.536 95.3163 122.469C95.3163 140.341 110.144 149.239 131.802 154.422C151.21 159.065 155.092 165.873 155.092 173.069C155.092 178.407 151.288 186.918 134.131 186.918C118.14 186.918 111.852 179.8 110.998 170.67H93.9189C94.8505 187.614 107.582 197.131 122.487 200.303V217.092H145.776V200.458C160.914 197.595 172.946 188.852 172.946 172.991C172.946 151.018 154.082 143.513 136.46 138.948Z" fill="white"/>
<path d="M203.778 27.3155V36.9442L242.046 36.9784L200.353 78.5321L207.204 85.361L248.898 43.8072L248.863 81.9465H258.593V27.3155H203.778Z" fill="white"/>
</svg>
