<svg width="790" height="522" viewBox="0 0 790 522" fill="none" xmlns="http://www.w3.org/2000/svg">
<path fill-rule="evenodd" clip-rule="evenodd" d="M20 0C8.95431 0 0 8.9543 0 20V235C14.3594 235 26 246.417 26 260.5C26 274.583 14.3594 286 0 286V502C0 513.046 8.95432 522 20 522H770C781.046 522 790 513.046 790 502V286C775.641 286 764 274.583 764 260.5C764 246.417 775.641 235 790 235V20C790 8.9543 781.046 0 770 0H20ZM764 260.5V261H762.016V258H764V260.5ZM26 260.5V258H27.9839V261H26V260.5ZM35.9194 261H39.8871V258H35.9194V261ZM47.8226 261H51.7903V258H47.8226V261ZM59.7258 261H63.6936V258H59.7258V261ZM71.629 261H75.5968V258H71.629V261ZM83.5323 261H87.5V258H83.5323V261ZM95.4355 261H99.4032V258H95.4355V261ZM107.339 261H111.306V258H107.339V261ZM119.242 261H123.21V258H119.242V261ZM131.145 261H135.113V258H131.145V261ZM143.048 261H147.016V258H143.048V261ZM154.952 261H158.919V258H154.952V261ZM166.855 261H170.823V258H166.855V261ZM178.758 261H182.726V258H178.758V261ZM190.661 261H194.629V258H190.661V261ZM202.565 261H206.532V258H202.565V261ZM214.468 261H218.436V258H214.468V261ZM226.371 261H230.339V258H226.371V261ZM238.274 261H242.242V258H238.274V261ZM250.177 261H254.145V258H250.177V261ZM262.081 261H266.048V258H262.081V261ZM273.984 261H277.952V258H273.984V261ZM285.887 261H289.855V258H285.887V261ZM297.79 261H301.758V258H297.79V261ZM309.694 261H313.661V258H309.694V261ZM321.597 261H325.565V258H321.597V261ZM333.5 261H337.468V258H333.5V261ZM345.403 261H349.371V258H345.403V261ZM357.307 261H361.274V258H357.307V261ZM369.21 261H373.177V258H369.21V261ZM381.113 261H385.081V258H381.113V261ZM393.016 261H396.984V258H393.016V261ZM404.919 261H408.887V258H404.919V261ZM416.823 261H420.79V258H416.823V261ZM428.726 261H432.694V258H428.726V261ZM440.629 261H444.597V258H440.629V261ZM452.532 261H456.5V258H452.532V261ZM464.436 261H468.403V258H464.436V261ZM476.339 261H480.307V258H476.339V261ZM488.242 261H492.21V258H488.242V261ZM500.145 261H504.113V258H500.145V261ZM512.048 261H516.016V258H512.048V261ZM523.952 261H527.919V258H523.952V261ZM535.855 261H539.823V258H535.855V261ZM547.758 261H551.726V258H547.758V261ZM559.661 261H563.629V258H559.661V261ZM571.565 261H575.532V258H571.565V261ZM583.468 261H587.435V258H583.468V261ZM595.371 261H599.339V258H595.371V261ZM607.274 261H611.242V258H607.274V261ZM619.177 261H623.145V258H619.177V261ZM631.081 261H635.048V258H631.081V261ZM642.984 261H646.951V258H642.984V261ZM654.887 261H658.855V258H654.887V261ZM666.79 261H670.758V258H666.79V261ZM678.693 261H682.661V258H678.693V261ZM690.597 261H694.564V258H690.597V261ZM702.5 261H706.467V258H702.5V261ZM714.403 261H718.371V258H714.403V261ZM726.306 261H730.274V258H726.306V261ZM738.209 261H742.177V258H738.209V261ZM750.113 261H754.08V258H750.113V261Z" fill="#0F0F0F"/>
</svg>
